<svg xmlns="http://www.w3.org/2000/svg" width="195" height="35" viewBox="0 0 195 35">
  <g id="Grupo_1" data-name="Grupo 1" transform="translate(-71 -83)">
    <g id="Mobile" transform="translate(70.571 82.652)">
      <g id="Home" transform="translate(0.429 0.348)">
        <g id="Group" transform="translate(0)">
          <g id="logo">
            <g id="Group-3" transform="translate(0)">
              <path id="_" data-name="" d="M7.973,13.5,19,20.3l-7.634,6.362L.429,19.545ZM29.982,25.884v2.411l-10.937,6.54v.022l-.022-.022L19,34.857v-.022L8.085,28.295V25.884l3.281,2.143L19,21.688v-.045l.022.022.022-.022v.045L26.7,28.027ZM11.366.348,19,6.71,7.973,13.5.429,7.469ZM30.027,13.5l7.545,6.049L26.656,26.665,19,20.3ZM26.656.348,37.571,7.469,30.027,13.5,19,6.71Z" transform="translate(-0.429 -0.348)" fill="#454ade"/>
            </g>
          </g>
        </g>
      </g>
    </g>
    <text id="ChooseBox" transform="translate(115 112)" fill="#454ade" font-size="27" font-family="Arial-BoldMT, Arial" font-weight="700"><tspan x="0" y="0">ChooseBox</tspan></text>
  </g>
</svg>
