<?xml version="1.0" standalone="no"?>
<!DOCTYPE svg PUBLIC "-//W3C//DTD SVG 20010904//EN"
 "http://www.w3.org/TR/2001/REC-SVG-20010904/DTD/svg10.dtd">
<svg version="1.0" xmlns="http://www.w3.org/2000/svg"
 width="592.000000pt" height="592.000000pt" viewBox="0 0 592.000000 592.000000"
 preserveAspectRatio="xMidYMid meet">
<metadata>
Created by potrace 1.11, written by Peter Selinger 2001-2013
</metadata>
<g transform="translate(0.000000,592.000000) scale(0.100000,-0.100000)"
fill="#000000" stroke="none">
<path d="M1700 5683 c-25 -15 -51 -32 -58 -39 -6 -7 -21 -16 -32 -19 -11 -3
-20 -11 -20 -16 0 -5 -4 -9 -10 -9 -5 0 -35 -17 -67 -39 -32 -21 -125 -83
-208 -136 -82 -54 -188 -123 -235 -154 -47 -31 -93 -60 -102 -66 -66 -39 -264
-171 -266 -177 -2 -4 -8 -8 -13 -8 -4 0 -48 -26 -96 -58 -48 -32 -131 -86
-183 -120 -52 -34 -102 -66 -110 -72 -21 -14 -186 -120 -242 -155 -26 -17 -47
-35 -48 -40 0 -6 29 -33 65 -60 36 -27 65 -52 65 -57 0 -4 5 -8 11 -8 6 0 16
-6 23 -12 7 -7 27 -24 45 -38 18 -14 38 -30 44 -35 7 -6 44 -35 82 -65 39 -30
72 -57 75 -60 3 -3 25 -21 50 -39 25 -19 50 -39 55 -46 6 -6 28 -24 50 -40 22
-16 67 -52 101 -80 33 -27 75 -61 94 -75 18 -14 63 -50 100 -80 37 -30 82 -66
100 -80 18 -14 38 -30 44 -35 6 -6 29 -24 51 -40 21 -17 47 -37 55 -45 31 -29
74 -60 83 -60 5 0 75 40 154 90 80 49 146 90 148 90 2 0 45 27 96 59 52 33
148 92 214 132 66 40 122 76 125 79 3 4 17 13 32 21 25 13 200 119 343 208 33
20 101 62 150 93 50 30 131 80 180 111 203 125 307 187 316 187 9 0 50 -21 59
-30 3 -3 49 -32 104 -65 114 -69 132 -81 252 -155 49 -30 97 -59 106 -65 71
-42 214 -131 218 -136 3 -3 16 -12 30 -19 28 -14 176 -104 257 -157 28 -18 54
-33 58 -33 3 0 11 -5 18 -11 7 -6 47 -31 89 -57 81 -49 152 -93 406 -250 147
-91 152 -95 135 -112 -11 -9 -23 -19 -28 -21 -10 -4 -140 -83 -264 -160 -34
-21 -67 -39 -71 -39 -5 0 -10 -3 -12 -8 -1 -4 -47 -34 -101 -67 -54 -33 -110
-68 -125 -77 -15 -10 -36 -22 -47 -28 -30 -15 -338 -207 -352 -219 -7 -6 -15
-11 -18 -11 -4 0 -26 -13 -50 -30 -24 -16 -46 -30 -50 -30 -5 0 -86 -50 -95
-60 -7 -8 -40 -27 -87 -51 -24 -13 -43 -26 -43 -31 0 -4 -4 -8 -9 -8 -9 0
-111 -61 -211 -125 -58 -38 -78 -50 -118 -71 -39 -20 -52 -43 -31 -54 12 -7
568 -466 694 -574 35 -30 381 -317 428 -356 10 -8 31 -25 45 -37 15 -13 30
-23 35 -23 4 0 30 16 57 35 27 19 53 35 58 35 5 0 17 8 28 18 22 20 131 92
139 92 3 0 11 5 18 11 12 11 298 199 302 199 2 0 127 81 185 121 105 70 275
179 281 179 4 0 9 3 11 8 2 6 159 110 236 157 20 12 188 122 316 206 48 33 92
59 97 59 5 0 9 5 9 10 0 6 -4 10 -9 10 -5 0 -24 13 -43 30 -18 16 -107 89
-198 161 -91 72 -183 146 -205 164 -22 18 -87 70 -145 116 -58 46 -107 85
-110 89 -3 3 -25 21 -50 40 -25 19 -50 39 -57 45 -6 5 -26 21 -44 35 -18 14
-37 30 -43 35 -6 6 -31 26 -56 45 -44 34 -64 50 -100 80 -10 8 -35 29 -56 45
-21 17 -49 39 -62 50 l-24 20 104 82 c57 46 108 86 113 90 6 5 35 28 65 53 30
25 61 50 68 55 7 6 18 15 25 20 7 6 40 32 74 58 34 26 68 53 75 60 7 7 58 48
113 92 55 43 105 83 110 87 6 5 62 50 125 99 63 50 129 103 146 118 18 15 64
52 103 82 39 29 71 58 71 64 -1 5 -56 45 -123 88 -67 43 -168 108 -224 145
-239 156 -630 411 -706 460 -45 29 -90 59 -100 67 -9 8 -19 15 -22 15 -4 0
-250 160 -473 308 -46 30 -87 51 -90 46 -4 -5 -41 -36 -82 -69 -41 -33 -81
-65 -88 -72 -7 -7 -34 -29 -60 -50 -26 -21 -49 -40 -52 -43 -6 -7 -120 -101
-138 -115 -7 -5 -21 -17 -30 -26 -9 -8 -109 -91 -222 -184 -113 -94 -210 -174
-216 -180 -6 -5 -42 -35 -79 -65 -38 -30 -76 -62 -84 -70 -62 -59 -162 -131
-173 -124 -12 7 -24 18 -78 65 -14 11 -45 38 -70 58 -24 20 -51 43 -60 51 -9
9 -33 29 -55 45 -21 17 -48 39 -60 50 -11 11 -38 34 -60 50 -21 17 -48 39 -59
50 -12 11 -41 36 -66 55 -25 19 -47 37 -50 40 -3 3 -75 64 -160 135 -85 71
-160 134 -167 140 -7 5 -18 15 -25 20 -15 12 -128 105 -144 120 -7 6 -31 26
-54 44 -23 19 -48 40 -54 45 -37 35 -41 36 -86 9z"/>
<path d="M1186 3599 c-14 -9 -111 -85 -190 -150 -6 -5 -42 -34 -81 -65 -38
-30 -83 -67 -100 -80 -27 -23 -274 -220 -356 -286 -19 -14 -45 -36 -59 -47
-14 -11 -29 -24 -35 -28 -5 -5 -90 -72 -188 -150 l-177 -143 37 -23 c21 -13
126 -81 233 -152 207 -135 248 -162 430 -279 63 -41 120 -79 127 -85 7 -6 15
-11 18 -11 3 0 28 -16 55 -35 27 -19 54 -35 60 -35 5 0 10 -4 10 -9 0 -5 12
-15 27 -22 16 -8 82 -50 148 -93 66 -43 180 -117 253 -165 73 -47 176 -115
230 -150 53 -35 102 -65 108 -68 10 -4 23 5 89 62 13 11 53 45 91 75 37 30 75
62 83 70 9 8 39 33 66 55 28 22 68 55 90 75 23 19 61 51 85 72 128 104 207
170 225 186 11 10 58 50 105 88 92 75 135 111 160 134 8 8 31 27 50 41 19 15
45 35 56 45 12 11 42 36 68 58 25 21 46 42 46 46 0 4 -44 34 -97 66 -54 32
-100 61 -103 64 -3 4 -41 28 -85 54 -44 26 -102 61 -130 78 -27 17 -138 85
-245 151 -107 66 -211 130 -230 142 -53 34 -621 385 -655 405 -57 32 -140 84
-145 89 -6 7 -48 31 -52 31 -2 0 -11 -5 -22 -11z"/>
<path d="M2928 2282 c-36 -28 -115 -93 -150 -124 -10 -9 -38 -31 -61 -50 -22
-18 -49 -41 -59 -50 -10 -10 -22 -18 -27 -18 -5 0 -11 -4 -13 -9 -2 -7 -121
-109 -178 -154 -23 -18 -121 -99 -150 -123 -36 -31 -409 -341 -448 -373 -18
-14 -46 -38 -64 -53 -24 -22 -35 -25 -50 -17 -19 10 -245 156 -402 260 -49 33
-93 59 -97 59 -5 0 -9 -84 -9 -187 l0 -188 52 -30 c28 -16 66 -39 84 -50 17
-11 58 -35 90 -54 33 -19 67 -41 78 -50 10 -9 19 -14 20 -12 1 4 64 -33 116
-68 14 -9 46 -28 73 -41 26 -14 47 -28 47 -32 0 -5 4 -8 9 -8 12 0 385 -223
389 -232 2 -5 8 -8 13 -8 6 0 35 -16 65 -35 30 -19 56 -35 57 -35 2 0 99 -58
217 -130 118 -71 231 -137 250 -147 19 -9 37 -20 40 -24 3 -4 23 -17 45 -29
22 -12 54 -30 70 -40 l30 -18 90 53 c50 30 95 59 102 64 7 6 14 11 17 11 2 0
152 88 333 196 180 108 348 208 373 222 25 14 47 28 50 31 3 3 19 13 35 21 17
8 32 17 35 20 10 11 232 140 240 140 5 0 10 3 12 8 3 7 105 72 113 72 2 0 39
22 82 48 43 26 85 51 93 55 8 4 35 21 60 37 25 16 60 36 78 46 l32 16 0 194 0
194 -52 -34 c-57 -36 -184 -119 -208 -136 -8 -5 -51 -33 -95 -62 -44 -28 -100
-64 -124 -80 -38 -25 -46 -27 -60 -15 -9 8 -68 56 -131 108 -63 51 -117 96
-120 99 -5 5 -283 235 -305 252 -5 4 -22 18 -36 30 -58 49 -77 65 -154 128
-44 35 -82 67 -85 70 -3 3 -30 25 -60 50 -78 64 -85 69 -190 157 -52 43 -102
84 -111 91 -13 10 -22 7 -51 -16z"/>
</g>
</svg>
